<svg width="16" height="16" viewBox="0 0 16 16" fill="none" xmlns="http://www.w3.org/2000/svg">
<path d="M6.18547 14.1715C6.66898 14.5982 7.30411 14.8572 7.99972 14.8572C8.69533 14.8572 9.33046 14.5982 9.81398 14.1715M12.114 5.2573C12.114 4.16613 11.6805 3.11966 10.9089 2.3481C10.1374 1.57653 9.09088 1.14307 7.99972 1.14307C6.90856 1.14307 5.86209 1.57653 5.09052 2.3481C4.31895 3.11966 3.88549 4.16613 3.88549 5.2573C3.88549 7.37625 3.35096 8.82705 2.75385 9.78666C2.25017 10.5961 1.99834 11.0008 2.00757 11.1137C2.01779 11.2388 2.04428 11.2864 2.14502 11.3612C2.236 11.4286 2.64614 11.4286 3.46643 11.4286H12.533C13.3533 11.4286 13.7634 11.4286 13.8544 11.3612C13.9552 11.2864 13.9817 11.2388 13.9919 11.1137C14.0011 11.0008 13.7493 10.5961 13.2456 9.78666C12.6485 8.82705 12.114 7.37625 12.114 5.2573Z" stroke="#FC6BB7" stroke-width="1.14286" stroke-linecap="round" stroke-linejoin="round"/>
</svg>
