<svg width="16" height="16" viewBox="0 0 16 16" fill="none" xmlns="http://www.w3.org/2000/svg">
<path d="M6.18571 14.1715C6.66922 14.5982 7.30436 14.8572 7.99997 14.8572C8.69558 14.8572 9.33071 14.5982 9.81422 14.1715M12.1142 5.2573C12.1142 4.16613 11.6807 3.11966 10.9092 2.3481C10.1376 1.57653 9.09113 1.14307 7.99997 1.14307C6.90881 1.14307 5.86233 1.57653 5.09077 2.3481C4.3192 3.11966 3.88574 4.16613 3.88574 5.2573C3.88574 7.37625 3.35121 8.82705 2.75409 9.78666C2.25042 10.5961 1.99858 11.0008 2.00781 11.1137C2.01804 11.2388 2.04452 11.2864 2.14526 11.3612C2.23624 11.4286 2.64639 11.4286 3.46667 11.4286H12.5333C13.3535 11.4286 13.7637 11.4286 13.8547 11.3612C13.9554 11.2864 13.9819 11.2388 13.9921 11.1137C14.0014 11.0008 13.7495 10.5961 13.2458 9.78666C12.6487 8.82705 12.1142 7.37625 12.1142 5.2573Z" stroke="#848484" stroke-width="1.14286" stroke-linecap="round" stroke-linejoin="round"/>
</svg>
